Coordinates
version=1
nRows=4
nColumns=107
inDegrees=yes

Units are S.I. units (second, meters, Newtons, ...)
If the header above contains a line with 'inDegrees', this indicates whether rotational values are in degrees (yes) or radians (no).

endheader
time	sternoclavicular_r2	sternoclavicular_r3	unrotscap_r3	unrotscap_r2	acromioclavicular_r2	acromioclavicular_r3	acromioclavicular_r1	unrothum_r1	unrothum_r3	unrothum_r2	elv_angle	shoulder_elv	shoulder1_r2	shoulder_rot	elbow_flexion	pro_sup	deviation	flexion	proximal_distal_r1	proximal_distal_r3	cmc_flexion	cmc_abduction	mp_flexion	ip_flexion	mcp2_flexion	mcp2_abduction	pm2_flexion	md2_flexion	mcp3_flexion	mcp3_abduction	pm3_flexion	md3_flexion	mcp4_flexion	mcp4_abduction	pm4_flexion	md4_flexion	mcp5_flexion	mcp5_abduction	pm5_flexion	md5_flexion	bicpt_tx	bicpt_ty	bicpt_tz	bicpt2_tx	bicpt2_ty	bicpt2_tz	ptpt_tx	ptpt_ty	ptpt_tz	FCUpt_tx	FCUpt_ty	FCUpt_tz	EDCpt_tx	EDCpt_ty	EDCpt_tz	APLpt_tx	APLpt_ty	APLpt_tz	FPLpt_tx	FPLpt_ty	FPLpt_tz	FPLpt2_tx	FPLpt2_ty	FPLpt2_tz	PEC1pt2_tx	PEC1pt2_ty	PEC1pt2_tz	PEC1pt3_tx	PEC1pt3_ty	PEC1pt3_tz	PEC2pt2_tx	PEC2pt2_ty	PEC2pt2_tz	PEC2pt3_tx	PEC2pt3_ty	PEC2pt3_tz	PEC3pt2_tx	PEC3pt2_ty	PEC3pt2_tz	PEC3pt3_tx	PEC3pt3_ty	PEC3pt3_tz	DELT2pt2a_tx	DELT2pt2a_ty	DELT2pt2a_tz	DELT2pt2_tx	DELT2pt2_ty	DELT2pt2_tz	LAT1pt2_tx	LAT1pt2_ty	LAT1pt2_tz	LAT1pt3_tx	LAT1pt3_ty	LAT1pt3_tz	LAT2pt2_tx	LAT2pt2_ty	LAT2pt2_tz	LAT2pt3_tx	LAT2pt3_ty	LAT2pt3_tz	LAT3pt2_tx	LAT3pt2_ty	LAT3pt2_tz	LAT3pt3_tx	LAT3pt3_ty	LAT3pt3_tz
      0.00000000	     -0.31413910	      0.13305450	     -0.13305450	      0.31413910	     -0.06360678	      0.51404760	      0.23106086	     -0.23106086	     -0.51404760	      0.06360678	    100.52752881	     74.37522425	     -1.75453637	    -35.44834580	     32.29331437	     85.88001226	      0.34001953	     -0.53235869	      0.36682423	     -0.26617935	     42.71022623	    -23.00353525	     16.40508484	     10.78371609	     81.55081975	     12.74987113	     76.52810197	     85.81235480	     87.53797552	     -1.06924630	     79.85085162	     57.33580184	     83.80858944	    -13.67223953	     93.59998747	     40.66231778	     95.76467647	    -14.31718155	     89.35396727	      5.43391077	      0.00096816	     -0.03130131	     -0.00489618	      0.01425229	     -0.01897264	     -0.00109658	      0.00120444	     -0.06900315	     -0.00696810	      0.01272422	     -0.18224180	      0.00008050	     -0.01030558	      0.00357143	     -0.00075337	      0.00030734	      0.00012294	      0.00061468	      0.00039339	      0.00118018	      0.00066385	     -0.00000593	     -0.00005433	     -0.00006520	      0.00243786	      0.00855316	      0.00595002	     -0.00797468	      0.01925494	     -0.01826326	      0.00243786	      0.00855316	      0.00595002	      0.00053715	      0.01785007	     -0.00937955	      0.00387952	      0.00475630	      0.01579797	      0.00000000	      0.00739549	      0.00000000	     -0.00698301	     -0.03227061	     -0.00609568	      0.02109474	     -0.00094700	     -0.01032238	     -0.00086771	      0.01454450	     -0.00595002	      0.00239654	      0.02099036	     -0.01735423	     -0.00582606	      0.01260248	     -0.00533023	     -0.01214796	      0.02660982	     -0.02979143	     -0.02280842	      0.01408998	     -0.00714829	     -0.01512298	      0.03074179	     -0.03722896
      0.03333333	     -0.31353988	      0.13280070	     -0.13280070	      0.31353988	     -0.06348545	      0.51306706	      0.23062011	     -0.23062011	     -0.51306706	      0.06348545	    100.80286314	     74.23335423	     -1.75934186	    -36.46606942	     32.09233307	     86.09751036	      0.33754677	     -0.57961738	      0.36483973	     -0.28980869	     42.77381750	    -22.89356529	     16.31757167	     10.73646348	     81.68916474	     12.69647299	     76.42943997	     84.46560599	     87.73782443	     -1.12725189	     79.80752390	     57.73736138	     84.07128228	    -13.69120982	     93.66591442	     41.16606636	     95.74633830	    -14.31849705	     90.49625224	      5.36979220	      0.00096151	     -0.03127827	     -0.00489247	      0.01422982	     -0.01891804	     -0.00105934	      0.00118837	     -0.06901354	     -0.00698562	      0.01274920	     -0.18223443	      0.00008648	     -0.01033168	      0.00358337	     -0.00076035	      0.00031172	      0.00012469	      0.00062344	      0.00039900	      0.00119701	      0.00067332	     -0.00000579	     -0.00005290	     -0.00006348	      0.00243321	      0.00853684	      0.00593867	     -0.00795947	      0.01921821	     -0.01822843	      0.00243321	      0.00853684	      0.00593867	      0.00053613	      0.01781602	     -0.00936166	      0.00387406	      0.00474723	      0.01578420	      0.00000000	      0.00736712	      0.00000000	     -0.00696969	     -0.03220905	     -0.00607211	      0.02146482	     -0.00098327	     -0.01088505	     -0.00086606	      0.01451676	     -0.00593867	      0.00239197	      0.02095032	     -0.01732113	     -0.00581495	      0.01257844	     -0.00532006	     -0.01212479	      0.02655907	     -0.02973461	     -0.02276491	      0.01406311	     -0.00713466	     -0.01509413	      0.03068315	     -0.03715795
      0.06666667	     -0.31353950	      0.13280053	     -0.13280053	      0.31353950	     -0.06348537	      0.51306644	      0.23061983	     -0.23061983	     -0.51306644	      0.06348537	    100.74823375	     74.23326411	     -1.75838839	    -36.49109644	     32.21874683	     86.10066447	      0.33945448	     -0.58014302	      0.36637159	     -0.29007151	     42.78395781	    -22.90108786	     16.33175884	     10.73889725	     81.66801828	     12.69387512	     76.41475573	     84.47135860	     87.73107393	     -1.13509855	     79.80173662	     57.73561181	     84.09630826	    -13.69792292	     93.66692244	     41.16120887	     95.73753670	    -14.32163717	     90.49454900	      5.37112223	      0.00096570	     -0.03129276	     -0.00489481	      0.01422949	     -0.01895238	     -0.00105879	      0.00118813	     -0.06901369	     -0.00698587	      0.01274957	     -0.18223432	      0.00008657	     -0.01033206	      0.00358354	     -0.00076045	      0.00031171	      0.00012468	      0.00062342	      0.00039899	      0.00119696	      0.00067329	     -0.00000577	     -0.00005267	     -0.00006321	      0.00243320	      0.00853683	      0.00593867	     -0.00795946	      0.01921818	     -0.01822841	      0.00243320	      0.00853683	      0.00593867	      0.00053613	      0.01781600	     -0.00936165	      0.00387405	      0.00474722	      0.01578419	      0.00000000	      0.00736710	      0.00000000	     -0.00696968	     -0.03220902	     -0.00607210	      0.02147373	     -0.00098417	     -0.01089903	     -0.00086606	      0.01451674	     -0.00593867	      0.00239196	      0.02095029	     -0.01732111	     -0.00581494	      0.01257842	     -0.00532006	     -0.01212478	      0.02655903	     -0.02973457	     -0.02276489	      0.01406309	     -0.00713465	     -0.01509411	      0.03068311	     -0.03715790
      0.10000000	     -0.31363301	      0.13284014	     -0.13284014	      0.31363301	     -0.06350430	      0.51321945	      0.23068861	     -0.23068861	     -0.51321945	      0.06350430	    100.65344949	     74.25540277	     -1.75673410	    -36.16543712	     32.29638468	     86.16088937	      0.36093867	     -0.54917199	      0.38321232	     -0.27458599	     42.77147431	    -22.90088671	     16.73845383	     10.43166474	     81.77379422	     12.72610922	     75.29030997	     86.28080922	     87.66382646	     -1.05006308	     79.60571887	     57.83390051	     84.20017394	    -13.69573795	     93.60913648	     40.72644681	     95.10660473	    -14.32090278	     90.96457860	      5.39281499	      0.00096826	     -0.03130166	     -0.00489624	      0.01422325	     -0.01897347	     -0.00104847	      0.00118368	     -0.06901657	     -0.00699072	      0.01275649	     -0.18223228	      0.00008824	     -0.01033928	      0.00358685	     -0.00076239	      0.00030931	      0.00012373	      0.00061863	      0.00039592	      0.00118777	      0.00066812	     -0.00000579	     -0.00005295	     -0.00006354	      0.00243393	      0.00853938	      0.00594044	     -0.00796184	      0.01922391	     -0.01823384	      0.00243393	      0.00853938	      0.00594044	      0.00053629	      0.01782131	     -0.00936444	      0.00387491	      0.00474864	      0.01578635	      0.00000000	      0.00737152	      0.00000000	     -0.00697176	     -0.03221862	     -0.00607577	      0.02135693	     -0.00097253	     -0.01071777	     -0.00086631	      0.01452107	     -0.00594044	      0.00239268	      0.02095654	     -0.01732628	     -0.00581668	      0.01258218	     -0.00532164	     -0.01212839	      0.02656696	     -0.02974344	     -0.02277168	      0.01406729	     -0.00713678	     -0.01509861	      0.03069226	     -0.03716899
